<?xml version="1.0" encoding="UTF-8"?><svg id="Capa_1" xmlns="http://www.w3.org/2000/svg" viewBox="0 0 249.96 249.96"><defs><style>.cls-1{fill:#f8f8f8;font-family:Archivo-Regular, Archivo;font-size:24.9px;}</style></defs><text class="cls-1" transform="translate(229.06 130.85) rotate(97.04)"><tspan x="0" y="0">2</tspan></text><text class="cls-1" transform="translate(227.43 144.34) rotate(104.58)"><tspan x="0" y="0">0</tspan></text><text class="cls-1" transform="translate(224 157.64) rotate(112.16)"><tspan x="0" y="0">2</tspan></text><text class="cls-1" transform="translate(218.91 170.24) rotate(119.7)"><tspan x="0" y="0">3</tspan></text><text class="cls-1" transform="translate(211.88 182.2) rotate(124.85)"><tspan x="0" y="0"> </tspan></text><text class="cls-1" transform="translate(209.39 186.32) rotate(130.66)"><tspan x="0" y="0">E</tspan></text><text class="cls-1" transform="translate(198.74 198.64) rotate(138.82)"><tspan x="0" y="0">d</tspan></text><text class="cls-1" transform="translate(188.28 207.55) rotate(144.02)"><tspan x="0" y="0">i</tspan></text><text class="cls-1" transform="translate(183.99 210.71) rotate(147.44)"><tspan x="0" y="0">t</tspan></text><text class="cls-1" transform="translate(177.95 214.54) rotate(150.89)"><tspan x="0" y="0">i</tspan></text><text class="cls-1" transform="translate(173.48 217.28) rotate(156.15)"><tspan x="0" y="0">o</tspan></text><text class="cls-1" transform="translate(160.99 222.83) rotate(163.68)"><tspan x="0" y="0">n</tspan></text><text class="cls-1" transform="translate(147.86 226.49) rotate(168.79)"><tspan x="0" y="0"> </tspan></text><text class="cls-1" transform="translate(142.95 227.47) rotate(171.56)"><tspan x="0" y="0"> </tspan></text><text class="cls-1" transform="translate(138.06 228.25) rotate(175.13)"><tspan x="0" y="0">路</tspan></text><text class="cls-1" transform="translate(130.06 228.89) rotate(178.66)"><tspan x="0" y="0"> </tspan></text><text class="cls-1" transform="translate(125.07 229.01) rotate(-178.64)"><tspan x="0" y="0"> </tspan></text><text class="cls-1" transform="translate(120.2 229.11) rotate(-173.56)"><tspan x="0" y="0">2</tspan></text><text class="cls-1" transform="translate(106.69 227.62) rotate(-166.02)"><tspan x="0" y="0">0</tspan></text><text class="cls-1" transform="translate(93.38 224.34) rotate(-158.46)"><tspan x="0" y="0">2</tspan></text><text class="cls-1" transform="translate(80.71 219.38) rotate(-150.9)"><tspan x="0" y="0">3</tspan></text><text class="cls-1" transform="translate(68.66 212.46) rotate(-145.74)"><tspan x="0" y="0"> </tspan></text><text class="cls-1" transform="translate(64.53 210.03) rotate(-139.93)"><tspan x="0" y="0">E</tspan></text><text class="cls-1" transform="translate(52.1 199.5) rotate(-131.78)"><tspan x="0" y="0">d</tspan></text><text class="cls-1" transform="translate(43.08 189.14) rotate(-126.58)"><tspan x="0" y="0">i</tspan></text><text class="cls-1" transform="translate(39.87 184.87) rotate(-123.15)"><tspan x="0" y="0">t</tspan></text><text class="cls-1" transform="translate(35.97 178.87) rotate(-119.7)"><tspan x="0" y="0">i</tspan></text><text class="cls-1" transform="translate(33.19 174.43) rotate(-114.45)"><tspan x="0" y="0">o</tspan></text><text class="cls-1" transform="translate(27.51 162) rotate(-106.92)"><tspan x="0" y="0">n</tspan></text><text class="cls-1" transform="translate(23.72 148.92) rotate(-101.81)"><tspan x="0" y="0"> </tspan></text><text class="cls-1" transform="translate(22.69 144.01) rotate(-99.04)"><tspan x="0" y="0"> </tspan></text><text class="cls-1" transform="translate(21.85 139.14) rotate(-95.47)"><tspan x="0" y="0">路</tspan></text><text class="cls-1" transform="translate(21.13 131.14) rotate(-91.93)"><tspan x="0" y="0"> </tspan></text><text class="cls-1" transform="translate(20.91 119.1) rotate(-82.96)"><tspan x="0" y="0">2</tspan></text><text class="cls-1" transform="translate(22.53 105.62) rotate(-75.41)"><tspan x="0" y="0">0</tspan></text><text class="cls-1" transform="translate(25.96 92.31) rotate(-67.84)"><tspan x="0" y="0">2</tspan></text><text class="cls-1" transform="translate(31.05 79.71) rotate(-60.3)"><tspan x="0" y="0">3</tspan></text><text class="cls-1" transform="translate(38.09 67.76) rotate(-55.15)"><tspan x="0" y="0"> </tspan></text><text class="cls-1" transform="translate(40.57 63.64) rotate(-49.34)"><tspan x="0" y="0">E</tspan></text><text class="cls-1" transform="translate(51.23 51.32) rotate(-41.18)"><tspan x="0" y="0">d</tspan></text><text class="cls-1" transform="translate(61.69 42.4) rotate(-35.98)"><tspan x="0" y="0">i</tspan></text><text class="cls-1" transform="translate(65.98 39.25) rotate(-32.56)"><tspan x="0" y="0">t</tspan></text><text class="cls-1" transform="translate(72.01 35.41) rotate(-29.11)"><tspan x="0" y="0">i</tspan></text><text class="cls-1" transform="translate(76.48 32.68) rotate(-23.85)"><tspan x="0" y="0">o</tspan></text><text class="cls-1" transform="translate(88.98 27.13) rotate(-16.32)"><tspan x="0" y="0">n</tspan></text><text class="cls-1" transform="translate(102.1 23.47) rotate(-11.21)"><tspan x="0" y="0"> </tspan></text><text class="cls-1" transform="translate(107.01 22.49) rotate(-8.44)"><tspan x="0" y="0"> </tspan></text><text class="cls-1" transform="translate(111.9 21.71) rotate(-4.87)"><tspan x="0" y="0">路</tspan></text><text class="cls-1" transform="translate(119.9 21.07) rotate(-1.34)"><tspan x="0" y="0"> </tspan></text><text class="cls-1" transform="translate(124.9 20.95) rotate(1.36)"><tspan x="0" y="0"> </tspan></text><text class="cls-1" transform="translate(129.77 20.85) rotate(6.44)"><tspan x="0" y="0">2</tspan></text><text class="cls-1" transform="translate(143.27 22.33) rotate(13.98)"><tspan x="0" y="0">0</tspan></text><text class="cls-1" transform="translate(156.59 25.61) rotate(21.54)"><tspan x="0" y="0">2</tspan></text><text class="cls-1" transform="translate(169.25 30.57) rotate(29.1)"><tspan x="0" y="0">3</tspan></text><text class="cls-1" transform="translate(181.3 37.5) rotate(34.26)"><tspan x="0" y="0"> </tspan></text><text class="cls-1" transform="translate(185.44 39.93) rotate(40.07)"><tspan x="0" y="0">E</tspan></text><text class="cls-1" transform="translate(197.86 50.45) rotate(48.22)"><tspan x="0" y="0">d</tspan></text><text class="cls-1" transform="translate(206.88 60.82) rotate(53.42)"><tspan x="0" y="0">i</tspan></text><text class="cls-1" transform="translate(210.11 65.1) rotate(56.86)"><tspan x="0" y="0">t</tspan></text><text class="cls-1" transform="translate(213.99 71.09) rotate(60.3)"><tspan x="0" y="0">i</tspan></text><text class="cls-1" transform="translate(216.77 75.52) rotate(65.55)"><tspan x="0" y="0">o</tspan></text><text class="cls-1" transform="translate(222.45 87.96) rotate(73.08)"><tspan x="0" y="0">n</tspan></text><text class="cls-1" transform="translate(226.25 101.04) rotate(78.19)"><tspan x="0" y="0"> </tspan></text><text class="cls-1" transform="translate(227.28 105.95) rotate(80.96)"><tspan x="0" y="0"> </tspan></text><text class="cls-1" transform="translate(228.11 110.83) rotate(84.54)"><tspan x="0" y="0">路</tspan></text><text class="cls-1" transform="translate(228.83 118.82) rotate(88.07)"><tspan x="0" y="0"> </tspan></text></svg>