<?xml version="1.0" encoding="utf-8"?>
<!-- Generator: Adobe Illustrator 26.3.1, SVG Export Plug-In . SVG Version: 6.00 Build 0)  -->
<svg version="1.1" id="Capa_1" xmlns="http://www.w3.org/2000/svg" xmlns:xlink="http://www.w3.org/1999/xlink" x="0px" y="0px"
	 viewBox="0 0 639 161" style="enable-background:new 0 0 639 161;" xml:space="preserve">
<g  opacity="0.1">
	<path d="M167.5,22.5c2.7,0,4.9,0,7.6-0.3c3.1-0.3,6.2-1,9.3-1s6.2-1,9.3-1.7c7.1-1.7,14.2-3.3,21.3-5c4-1,8.4-1.7,12.4-1.3
		c5.3,0.3,10.7-0.3,15.5-1.3c2.2-0.3,4.9-1,7.1-1.3c4.9-0.7,8.9-1.7,12-4.3c0.4-0.3,1.3-0.3,1.8-0.7c0.9-0.3,2.7,0,3.6,1
		c1.3,2.3,1.8,2.3,3.6,2c2.2-0.7,4-1,5.8-1.7c1.8-0.7,4,0,5.8-1.3C280.8,4,277.7,6,275.9,4c8-0.7,15.5-2.6,24.9-1.3
		c-1.3,0.3-2.2,0.7-3.1,0.7c-0.9,0-2.2,0-2.2,1c0.4,0,0.4,0.3,0.9,0.3c11.1-0.3,21.8-0.3,32.9-2c2.7-0.3,5.8-0.3,8.4-0.7
		c16-1,32.9-2,49.3-2c6.2,0,12,0,18.2,0c12.4-0.3,24.9,1,37.3,1.7C448.7,2,455,3,461.2,4c0.9,0,1.8,0.7,2.7,1
		c-9.8,0.3-19.1,0.3-28.4-0.7c-1.8-0.3-3.6-0.3-5.3,0c-7.6,1-15.5,0.3-23.1,0.7c-8.9,0.3-17.8-0.7-26.7,0
		c-8.4,0.7-16.9,0.3-25.3,0.3c-2.2,0-4.4,0-6.2,0.3c-8,1-16.4,1-24.4,1.3c-5.8,0-11.1,0.7-16.9,1c-10.7,1-20.9,2.3-31.5,3.3
		c-5.8,0.7-12,1.3-17.8,2c-0.9,0-1.8,0.7-2.7,1c-5.3,0-10.7,0.3-16,1.3c-2.2,0.3-4.9,0.3-7.6,0.7c-1.8,0.3-3.6,0.3-5.3,0.7
		c-2.2,0.3-2.2,1,0,2.6c0,0.3,0.4,0.3,0.4,0.7c0,0.3-0.4,0.7-0.4,0.7c-0.9,0-2.2,0.3-3.1,0c-1.8-0.3-3.6,0-5.3,0.7
		c-3.6,1.3-6.7,3.6-11.6,3.3c-3.6-0.3-7.6,1.7-11.6,1.3c-2.7-0.3-3.6,1.3-5.3,2.3c-0.9,0.3-2.2,1-3.1,0.3c-2.2-1.7-4.4-1.3-7.1-0.7
		c-4.4,1.3-9.3,2.6-14.7,2c-2.7-0.3-4.9,0.3-7.1,1.3c-2.7,1-5.3,1.7-8,2c-3.6,0.7-7.6,1.3-10.7,3.3c-1.3,1-4,1.3-5.8,1.7
		c-10.2,1-20,4.3-29.3,6.9C93.8,48.4,84,52,74.2,56c-11.1,4.3-21.3,9.3-31.5,14.9c-1.3,0.7-2.7,1.7-4.4,2.3c-4.4,2-7.6,5-11.1,7.3
		c-4.4,3-7.6,6.3-11.1,9.6c-3.1,3.3-4.9,6.9-5.3,10.9c0,2.6-0.9,5.3,0,7.9c1.3,5,4.4,9.6,9.3,13.2c5.8,4.6,12,8.9,20,11.6
		c5.3,3.3,11.6,4.6,18.2,6c9.3,1.7,18.2,4,27.5,6c6.2,1.3,12.4,2,18.7,2.6c9.8,1,19.5,2,29.8,2.3c9.3,0.3,18.2,0.7,27.5,1.3
		c15.1,1,30.7,0.7,45.8-0.3c1.8,0,3.6-0.3,5.3-0.3c22.2,0,44-1.7,65.8-3.3c12.9-0.7,25.3-1,38.2-2c10.2-0.7,20.4-1,30.7-2.3
		c12.9-1.7,26.2-2.6,39.1-4c7.1-0.7,14.2-1.3,21.3-2c1.8-0.3,3.6-0.3,5.3-0.7c16.9-2.3,34.2-4.6,51.1-7.3c2.7-0.3,5.8-0.7,8.4-1.3
		c4-0.7,8-1.7,12.4-1.7c2.2,0,4.9-0.7,7.1-1c9.8-2,20-4,29.8-6c19.5-4.3,39.1-7.9,57.3-14.6c8-1.7,14.7-5,21.8-7.9
		c8-3.3,14.7-8.3,20.9-13.6c2.7-2.6,4-5.6,4.4-8.9c0.9-4.3-1.3-8.3-3.1-12.2c-0.4-0.7-0.9-1.3-1.8-2c-8-6.3-11.6-8.6-21.8-13.9
		c-2.2-1-4-2-6.2-3c-2.7-1.3-5.3-2.3-8.4-3.6c-1.3-0.7-2.7-1.3-4-1.3c-4.9-0.7-9.3-2.3-13.8-4.3c-3.1-1.3-6.7-2.3-10.2-1.3
		c-2.7,0.7-4.9-0.7-7.1-1.3c-0.9-0.3-1.8-1-2.7-1c-6.2-0.7-12.4-2.3-18.7-2.6c-0.4,0-0.9-0.3-0.9-0.3c-0.4-0.7,0-1,0.9-1
		c2.2-0.3,2.7-0.3,3.6-0.7c0,0,0.4-0.3,0.4-0.7c0-0.3-0.4-0.7-0.4-0.7c-1.3-0.3-2.7-0.7-4-0.7c-2.7,0-5.8,0.3-8.4,0.7
		c-5.3,0.7-9.8,0-13.3-3c-4.4-0.7-8.9-1-12.9-1.7c-3.1-0.7-5.8-0.3-8.9-0.3c-2.2,0-4-1-5.3-2c-0.4-0.7-0.4-1.3-0.4-1.7
		c0.4-0.3,0.9-1,1.3-1c4.4-0.3,9.3,0.3,13.8,1c7.1,1,13.8,2.3,20.9,2.6c0.9,0,1.3,0,2.2,0.3c10.2,1.7,20,3.6,30.2,5.3
		c4.4,1,8.9,1.7,13.3,3c8.9,2.3,17.3,4.3,26.2,6.9c6.7,2,12.9,4.3,18.7,7.6c1.3,0.7,2.7,1.7,4.4,2.3c7.1,3,12.9,7.6,18.7,11.9
		c2.2,1.7,3.6,3.3,4.4,5.3c1.3,3,2.7,6,4.9,8.9c1.8,5.3,1.3,10.6-2.7,15.2c-4.9,5.3-10.2,10.3-16.9,13.9c-6.2,3.3-12.4,6-18.7,8.9
		c-1.3,0.7-2.7,1-4,1c-3.6,0.3-6.7,2-9.3,3.6c-1.8,1-3.6,1.3-5.8,2c-8.9,2.3-17.8,4.3-26.2,7.3c-1.8,0.7-3.6,1-4.9,1
		c-4.9,0.3-9.8,0.7-14.2,2.6c-0.4,0-0.9,0.3-0.9,0.3c-8.9,0.3-16.4,3-24.4,5.6c-4,1.3-8,2-12.4,2c-2.7,0-4.9,0.3-7.6,0.3
		c-3.1,0-5.8,0.3-8.4,1.3c-1.8,0.7-3.1,1-4.9,1.3c-4.4,0.7-8.9,1-13.8,1.7c-4.4,2-9.3,2-14.2,3c-4.4,0.7-8.9,1.3-13.8,2
		c-1.8,0.3-3.6,0.3-5.3,0.3c-3.6,0-7.1,0.7-10.2,2c-1.8,0.7-4,1-6.2,1c-4,0-7.6,0.3-11.6,1c-6.7,1.3-13.3,2-20,2s-13.3,0.7-20,2
		c-4.9,1-9.8,1.3-14.7,1.3c-5.3,0.3-10.7,0.7-16,1c-9.3,0.7-19.1,2-28.4,1.3c-1.8,0-3.6,0.3-5.3,0.3c-8,1-16,1.7-24.4,1.7
		c-6.7,0-13.3,0.3-20,1.3c-2.2,0.3-4.9,0.3-7.6,0.3c-8,0.3-15.6,0.7-23.5,1c-19.1,0.7-38.2,1.3-57.3,0.3c-10.2-0.3-20.4-1-30.7-1.7
		c-5.8-0.3-11.6,0-16.9-1c-0.9-0.3-2.2,0-3.1-0.3c-4.9-1.7-9.3-1.7-14.7-1c-4,0.3-8.4,0-12.4-1.7c-0.4-0.3-1.3-0.7-1.8-0.7
		c-0.4-0.3-1.3-0.3-2.2-0.3c-5.3,0-10.2-2.3-15.5-2.6c-4.9,0-8.9-1.3-12.9-3c-3.6-1.3-7.1-2.6-10.7-3.3s-6.7-2-9.8-3
		c-0.4-0.3-1.3-0.3-1.8-0.7c-7.6-4.6-15.5-8.3-21.3-14.2C1.4,117.5-2.6,106.6,1.8,95c0.4-1.3,1.3-2.3,2.2-3.6c0.4-1,1.3-2,3.1-2
		c3.6-0.7,6.2-2.3,8.4-4.6c0-0.7-0.4-0.7-1.3-0.3c-0.9,0.3-1.8,0.7-3.1,0.7c0-1.7,1.3-3,2.7-4.3c5.3-5,11.6-8.9,17.8-13.2
		c2.7-1.7,5.8-3,9.3-3.3c0,1,0.4,2.3,0.4,3.3c-3.1,0-5.3,1-6.7,3c-4.9,1.3-4.9,1.3-6.2,4.3c2.7-1,4.4-2.3,5.8-4.3
		c2.7-0.3,4.9-1.7,6.7-3c7.6-3.6,15.1-7.6,22.7-11.2c0.4,0,0.4-0.3,0.4-0.7c0-0.7-0.4-1-1.3-0.7c-2.2,0.7-4.4,1.7-7.1,1.3
		c1.3-1,2.2-2,3.6-2.6c2.7-1.7,5.8-3,9.8-2.3c2.7,0.3,4.9-0.7,6.2-2.3c1.3-1.7,3.1-2.6,5.3-3.6c6.7-3,13.8-5.3,20.9-7.3
		c4-1,8-1.7,12.4-2c2.7,0,5.8-0.3,8-2c3.1,0,6.2,0,8.9-1.7h-0.4c8.4-1.3,16.9-2.3,24.4-4.6c2.7-1,6.2-1.3,9.3-1.7
		C165.3,25.2,167.1,23.9,167.5,22.5z"/>
	<path d="M255.5,14.6c8.9,0.7,17.8-0.3,26.7-0.7c4.4-0.3,8.4-0.7,12.9-1c4-0.3,7.6-0.7,11.6-1c4-0.3,8-1,11.6-0.3
		c4,0.7,7.6,0.7,11.6,0c1.3-0.3,2.7,0,4.4-0.3c5.8-1,11.1-0.7,16.9,1c-0.4,0.3-0.9,0.7-1.3,0.7c-3.6,0.3-7.1,0.3-10.7,0.3
		c-4.4,0-8.4,0.3-12.4,1.3c-5.3,1.3-11.1,1.3-16.9,1c-5.8-0.3-11.1,0-16.9,1c-9.3,1-18.2,1.7-27.1,1.7c-7.6,0-15.5,0.7-23.1,1.3
		c-2.2,0.3-4.4,1.3-7.1,1.7c-0.4,0-1.3-0.3-1.8-0.7v-0.7c0.4-1,1.3-2,2.7-2c2.7,0,5.8,0,8.4,0C249.3,17.6,252.8,16.6,255.5,14.6z"/>
	<path d="M379.4,10.6c2.2-1,4.9-0.7,7.1-0.3c4.4,1,8.9,1,13.8,1c6.2,0,12.9,0,19.1,0c3.6,0,7.1,0,10.7,0.7c6.2,1.3,13.3,1.3,20,1
		c4.9-0.3,9.8,0,14.7,1c4,0.7,7.1,2.3,8.9,5.3c0,0.3,0,0.7,0,0.7c-0.4,0.3-1.3,0.7-1.8,0.7c-0.4,0-1.3,0-2.2-0.3
		c-4.9-2.6-10.7-3.3-16-4.6c-3.1-0.7-6.2-1-9.3,0c-2.7,1-5.3,1-8,0c-0.9-0.3-2.2-0.7-3.1-0.7c-5.3,0.7-10.7-0.7-16,0.3
		c-2.2,0.3-4.4,0.3-6.2-0.7c-2.7-1.3-5.3-1.3-8-1c-2.7,0.7-5.3,0.3-8.4,0c-4-0.7-7.6-0.7-11.6-1C381.7,12.3,379.9,12,379.4,10.6z"/>
	<path d="M168,20.9c2.7-2,5.8-3,9.3-2.6c0.9,0,1.3,0.3,1.3,0.7c0,0.3-0.4,0.3-0.9,0.7C174.6,20.9,171.1,21.2,168,20.9z"/>
	<path d="M120.9,32.1c2.2-1.7,4.9-2.6,8.4-3c0.9,0,1.8,0.7,1.3,1.7c-0.4,0.3-0.4,1-0.9,1.3h0.4C126.7,31.8,123.5,31.8,120.9,32.1z"
		/>
	<path d="M363.4,12.6c-0.4-0.3-1.3-0.3-1.8-0.7c0,0-0.4-0.7,0-0.7c0.4-0.7,1.8-0.7,2.7-0.7c0.4,0,1.3,0.3,1.8,0.7
		c0.4,0,0.4,0.7,0.4,0.7c0,0.3-0.4,0.3-0.9,0.3C365.2,12.6,364.3,12.6,363.4,12.6z"/>
	<path d="M463.9,5c2.2,0,4.4-0.3,6.7,0.7C468.3,7,466.1,6.3,463.9,5z"/>
	<path d="M168,22.5c-0.9-0.3-1.8-0.3-3.1-0.7c1.3-0.3,2.2-0.7,3.1-0.7C167.5,21.6,167.5,21.9,168,22.5z"/>
	<path d="M48.5,58.9c-0.4,0.3-0.9,0.7-1.3,1l-0.4-0.3C47.1,59.3,48,59.3,48.5,58.9z"/>
	<path d="M206.6,13.9h-0.9l0.4-0.3L206.6,13.9z"/>
	<path d="M120.9,33.5c0-0.7,0-1,0-1.7C120.9,32.5,120.9,33.1,120.9,33.5z"/>
</g>
</svg>
