<?xml version="1.0" encoding="utf-8"?>
<!-- Generator: Adobe Illustrator 26.3.1, SVG Export Plug-In . SVG Version: 6.00 Build 0)  -->
<svg version="1.1" id="Capa_1" xmlns="http://www.w3.org/2000/svg" xmlns:xlink="http://www.w3.org/1999/xlink" x="0px" y="0px"
	 viewBox="0 0 96 96" style="enable-background:new 0 0 96 96;" xml:space="preserve">
<style type="text/css">
	.st0{fill:#FFFFFF;}
</style>
<path class="st0" d="M48,22.5c-25.6,0-29,0.3-32.3,3.6S12,34.9,12,48s0.4,18.5,3.7,21.9s6.7,3.6,32.3,3.6s29-0.3,32.3-3.6
	C83.6,66.5,84,61.1,84,48s-0.4-18.5-3.7-21.9S73.6,22.5,48,22.5z M48,28.5c21,0,26.1,0.1,27.8,1.8C77.5,32.1,78,36.8,78,48
	s-0.5,15.9-2.2,17.7c-1.7,1.8-6.8,1.8-27.8,1.8s-26.1-0.1-27.8-1.8C18.5,63.9,18,59.2,18,48s0.4-15.9,2.2-17.7S27,28.5,48,28.5z
	 M41.9,37.5v20.9l18.2-10.6L41.9,37.5z"/>
</svg>
