<?xml version="1.0" encoding="utf-8"?>
<!-- Generator: Adobe Illustrator 26.3.1, SVG Export Plug-In . SVG Version: 6.00 Build 0)  -->
<svg version="1.1" id="Capa_1" xmlns="http://www.w3.org/2000/svg" xmlns:xlink="http://www.w3.org/1999/xlink" x="0px" y="0px"
	 viewBox="0 0 96 96" style="enable-background:new 0 0 96 96;" xml:space="preserve">
<style type="text/css">
	.st0{fill:#FFFFFF;}
</style>
<path class="st0" d="M35.7,18C19.3,18,18,19.3,18,35.7v24.7C18,76.7,19.3,78,35.7,78h24.7C76.7,78,78,76.7,78,60.3V35.7
	C78,19.3,76.7,18,60.3,18H35.7z M31.8,24h32.5c7.2,0,7.8,0.6,7.8,7.8v32.5c0,7.2-0.6,7.8-7.8,7.8H31.8c-7.2,0-7.8-0.6-7.8-7.8V31.8
	C24,24.6,24.6,24,31.8,24z M33.8,27.8c-2.4,0-4.4,2-4.4,4.4s2,4.4,4.4,4.4c2.4,0,4.4-2,4.4-4.4C38.2,29.7,36.2,27.8,33.8,27.8z
	 M56.9,39.5c-3.7,0-6.2,2-7.2,3.9h-0.1v-3.3h-7.3v24.4h7.6V52.4c0-3.2,0.6-6.3,4.6-6.3c3.9,0,3.9,3.6,3.9,6.5v11.9H66V51.1
	C66,44.5,64.6,39.5,56.9,39.5z M30,40.1v24.4h7.6V40.1H30z"/>
</svg>
