<?xml version="1.0" encoding="utf-8"?>
<!-- Generator: Adobe Illustrator 26.3.1, SVG Export Plug-In . SVG Version: 6.00 Build 0)  -->
<svg version="1.1" id="Capa_1" xmlns="http://www.w3.org/2000/svg" xmlns:xlink="http://www.w3.org/1999/xlink" x="0px" y="0px"
	 viewBox="0 0 96 96" style="enable-background:new 0 0 96 96;" xml:space="preserve">
<style type="text/css">
	.st0{fill:#FFFFFF;}
</style>
<path class="st0" d="M47.7,18C20.2,18,18,20.2,18,47.7v0.5C18,75.8,20.2,78,47.7,78h0.5C75.8,78,78,75.8,78,48.3V48
	c0-27.8-2.2-30-30-30H47.7z M42,24h12c16.7,0,18,1.3,18,18v12c0,16.7-1.3,18-18,18H42c-16.7,0-18-1.3-18-18V42
	C24,25.3,25.3,24,42,24z M63,30c-1.7,0-3,1.4-3,3c0,1.7,1.4,3,3,3s3-1.4,3-3C66,31.3,64.6,30,63,30z M48,33c-8.3,0-15,6.8-15,15
	s6.8,15,15,15s15-6.8,15-15S56.2,33,48,33z M48,39c5,0,9,4,9,9c0,5-4,9-9,9s-9-4-9-9C39,43.1,43,39,48,39z"/>
</svg>
