<?xml version="1.0" encoding="utf-8"?>
<!-- Generator: Adobe Illustrator 26.3.1, SVG Export Plug-In . SVG Version: 6.00 Build 0)  -->
<svg version="1.1" id="Capa_1" xmlns="http://www.w3.org/2000/svg" xmlns:xlink="http://www.w3.org/1999/xlink" x="0px" y="0px"
	 viewBox="0 0 96 96" style="enable-background:new 0 0 96 96;" xml:space="preserve">
<style type="text/css">
	.st0{fill:#FFFFFF;}
</style>
<path class="st0" d="M48,15c-18.2,0-33,14.8-33,33s14.8,33,33,33s33-14.8,33-33S66.2,15,48,15z M48,21c14.9,0,27,12.1,27,27
	c0,12.4-8.3,22.8-19.6,26c-0.1-0.3-0.2-0.6-0.2-1c0-1.8,0-6,0-7.6c0-2.7-1.7-4.6-1.7-4.6s13.2,0.1,13.2-14c0-5.4-2.8-8.3-2.8-8.3
	s1.5-5.8-0.5-8.3c-2.3-0.2-6.3,2.2-8,3.3c0,0-2.7-1.1-7.3-1.1s-7.3,1.1-7.3,1.1c-1.7-1.1-5.8-3.5-8-3.3c-2,2.5-0.5,8.3-0.5,8.3
	s-2.8,2.8-2.8,8.3c0,14.1,13.2,14,13.2,14S41,62.6,40.9,65c-0.9,0.3-2.1,0.7-3.2,0.7c-2.8,0-4.9-2.7-5.7-3.9
	c-0.8-1.2-2.3-2.3-3.8-2.3c-1,0-1.4,0.5-1.4,1s1.3,0.9,2.2,1.9c1.9,2.1,1.8,7,8.5,7c0.8,0,2.2-0.2,3.3-0.3c0,1.5,0,3,0,3.9
	c0,0.4-0.1,0.7-0.2,1C29.3,70.8,21,60.4,21,48C21,33.1,33.1,21,48,21z"/>
</svg>
