<?xml version="1.0" encoding="UTF-8"?><svg id="Capa_1" xmlns="http://www.w3.org/2000/svg" viewBox="0 0 498.08 498.08"><defs><style>.cls-1{fill:#f8f8f8;font-family:Archivo-Regular, Archivo;font-size:48px;}</style></defs><text class="cls-1" transform="translate(457.71 254.3) rotate(93.58)"><tspan x="0" y="0">·</tspan></text><text class="cls-1" transform="translate(457.27 269.45) rotate(99.96)"><tspan x="0" y="0">S</tspan></text><text class="cls-1" transform="translate(451.4 300.34) rotate(106.16)"><tspan x="0" y="0">t</tspan></text><text class="cls-1" transform="translate(447.93 313.43) rotate(111.54)"><tspan x="0" y="0">a</tspan></text><text class="cls-1" transform="translate(438.41 336.96) rotate(117.14)"><tspan x="0" y="0">r</tspan></text><text class="cls-1" transform="translate(431.39 350.65) rotate(121.14)"><tspan x="0" y="0">t</tspan></text><text class="cls-1" transform="translate(424.21 362.43) rotate(124.34)"><tspan x="0" y="0"> </tspan></text><text class="cls-1" transform="translate(419.15 370.39) rotate(128.9)"><tspan x="0" y="0">s</tspan></text><text class="cls-1" transform="translate(404.37 388.8) rotate(135.4)"><tspan x="0" y="0">c</tspan></text><text class="cls-1" transform="translate(387.04 405.65) rotate(140.77)"><tspan x="0" y="0">r</tspan></text><text class="cls-1" transform="translate(375.88 415.21) rotate(146.35)"><tspan x="0" y="0">o</tspan></text><text class="cls-1" transform="translate(353.5 429.7) rotate(151.4)"><tspan x="0" y="0">l</tspan></text><text class="cls-1" transform="translate(344.37 434.69) rotate(154.26)"><tspan x="0" y="0">l</tspan></text><text class="cls-1" transform="translate(335.01 439.22) rotate(157.13)"><tspan x="0" y="0">i</tspan></text><text class="cls-1" transform="translate(325.84 443.51) rotate(162.17)"><tspan x="0" y="0">n</tspan></text><text class="cls-1" transform="translate(301.04 451.53) rotate(169.32)"><tspan x="0" y="0">g</tspan></text><text class="cls-1" transform="translate(275.42 456.03) rotate(174.18)"><tspan x="0" y="0"> </tspan></text><text class="cls-1" transform="translate(265.9 457.07) rotate(177.37)"><tspan x="0" y="0">t</tspan></text><text class="cls-1" transform="translate(252.39 458.04) rotate(-177.21)"><tspan x="0" y="0">o</tspan></text><text class="cls-1" transform="translate(225.78 456.4) rotate(-172.29)"><tspan x="0" y="0"> </tspan></text><text class="cls-1" transform="translate(216.44 455.54) rotate(-167.35)"><tspan x="0" y="0">d</tspan></text><text class="cls-1" transform="translate(190.63 449.41) rotate(-162.28)"><tspan x="0" y="0">i</tspan></text><text class="cls-1" transform="translate(180.85 446.6) rotate(-157.58)"><tspan x="0" y="0">s</tspan></text><text class="cls-1" transform="translate(159.03 437.67) rotate(-151.02)"><tspan x="0" y="0">c</tspan></text><text class="cls-1" transform="translate(137.98 426.16) rotate(-144.11)"><tspan x="0" y="0">o</tspan></text><text class="cls-1" transform="translate(116.77 410.78) rotate(-137.39)"><tspan x="0" y="0">v</tspan></text><text class="cls-1" transform="translate(99.7 395.25) rotate(-130.81)"><tspan x="0" y="0">e</tspan></text><text class="cls-1" transform="translate(83.18 375.78) rotate(-125.25)"><tspan x="0" y="0">r</tspan></text><text class="cls-1" transform="translate(74.83 363.89) rotate(-122.07)"><tspan x="0" y="0"> </tspan></text><text class="cls-1" transform="translate(69.12 356.64) rotate(-115.27)"><tspan x="0" y="0">m</tspan></text><text class="cls-1" transform="translate(52.45 320.25) rotate(-106.13)"><tspan x="0" y="0">o</tspan></text><text class="cls-1" transform="translate(45.3 294.64) rotate(-100.36)"><tspan x="0" y="0">r</tspan></text><text class="cls-1" transform="translate(42.35 280.22) rotate(-94.91)"><tspan x="0" y="0">e</tspan></text><text class="cls-1" transform="translate(40.31 248.61) rotate(-87.73)"><tspan x="0" y="0">·</tspan></text><text class="cls-1" transform="translate(41 233.12) rotate(-84.31)"><tspan x="0" y="0"> </tspan></text><text class="cls-1" transform="translate(41.34 223.82) rotate(-78.71)"><tspan x="0" y="0">S</tspan></text><text class="cls-1" transform="translate(47.92 193.09) rotate(-72.51)"><tspan x="0" y="0">t</tspan></text><text class="cls-1" transform="translate(51.69 180.09) rotate(-67.13)"><tspan x="0" y="0">a</tspan></text><text class="cls-1" transform="translate(61.76 156.76) rotate(-61.53)"><tspan x="0" y="0">r</tspan></text><text class="cls-1" transform="translate(69.09 143.26) rotate(-57.54)"><tspan x="0" y="0">t</tspan></text><text class="cls-1" transform="translate(76.55 131.62) rotate(-54.33)"><tspan x="0" y="0"> </tspan></text><text class="cls-1" transform="translate(81.79 123.79) rotate(-49.78)"><tspan x="0" y="0">s</tspan></text><text class="cls-1" transform="translate(96.97 105.74) rotate(-43.29)"><tspan x="0" y="0">c</tspan></text><text class="cls-1" transform="translate(114.69 89.29) rotate(-37.92)"><tspan x="0" y="0">r</tspan></text><text class="cls-1" transform="translate(126.08 79.98) rotate(-32.33)"><tspan x="0" y="0">o</tspan></text><text class="cls-1" transform="translate(148.79 66) rotate(-27.27)"><tspan x="0" y="0">l</tspan></text><text class="cls-1" transform="translate(158.03 61.23) rotate(-24.41)"><tspan x="0" y="0">l</tspan></text><text class="cls-1" transform="translate(167.5 56.92) rotate(-21.53)"><tspan x="0" y="0">i</tspan></text><text class="cls-1" transform="translate(176.78 52.84) rotate(-16.49)"><tspan x="0" y="0">n</tspan></text><text class="cls-1" transform="translate(201.75 45.4) rotate(-9.35)"><tspan x="0" y="0">g</tspan></text><text class="cls-1" transform="translate(227.46 41.5) rotate(-4.5)"><tspan x="0" y="0"> </tspan></text><text class="cls-1" transform="translate(237.04 40.68) rotate(-1.32)"><tspan x="0" y="0">t</tspan></text><text class="cls-1" transform="translate(250.53 40.02) rotate(4.1)"><tspan x="0" y="0">o</tspan></text><text class="cls-1" transform="translate(277.11 42.27) rotate(9.04)"><tspan x="0" y="0"> </tspan></text><text class="cls-1" transform="translate(286.44 43.35) rotate(13.99)"><tspan x="0" y="0">d</tspan></text><text class="cls-1" transform="translate(312.07 50.08) rotate(19.06)"><tspan x="0" y="0">i</tspan></text><text class="cls-1" transform="translate(321.78 53.11) rotate(23.75)"><tspan x="0" y="0">s</tspan></text><text class="cls-1" transform="translate(343.41 62.56) rotate(30.31)"><tspan x="0" y="0">c</tspan></text><text class="cls-1" transform="translate(364.17 74.54) rotate(37.21)"><tspan x="0" y="0">o</tspan></text><text class="cls-1" transform="translate(385.03 90.42) rotate(43.93)"><tspan x="0" y="0">v</tspan></text><text class="cls-1" transform="translate(401.73 106.33) rotate(50.51)"><tspan x="0" y="0">e</tspan></text><text class="cls-1" transform="translate(417.8 126.17) rotate(56.08)"><tspan x="0" y="0">r</tspan></text><text class="cls-1" transform="translate(425.88 138.26) rotate(59.26)"><tspan x="0" y="0"> </tspan></text><text class="cls-1" transform="translate(431.41 145.64) rotate(66.07)"><tspan x="0" y="0">m</tspan></text><text class="cls-1" transform="translate(447.23 182.4) rotate(75.2)"><tspan x="0" y="0">o</tspan></text><text class="cls-1" transform="translate(453.78 208.15) rotate(80.96)"><tspan x="0" y="0">r</tspan></text><text class="cls-1" transform="translate(456.39 222.65) rotate(86.41)"><tspan x="0" y="0">e</tspan></text></svg>