<?xml version="1.0" encoding="utf-8"?>
<!-- Generator: Adobe Illustrator 26.3.1, SVG Export Plug-In . SVG Version: 6.00 Build 0)  -->
<svg version="1.1" id="Capa_1" xmlns="http://www.w3.org/2000/svg" xmlns:xlink="http://www.w3.org/1999/xlink" x="0px" y="0px"
	 viewBox="0 0 500 500" style="enable-background:new 0 0 500 500;" xml:space="preserve">
<style type="text/css">
	.st0{fill-rule:evenodd;clip-rule:evenodd;}
	.st1{display:none;fill-rule:evenodd;clip-rule:evenodd;}
	.st2{display:none;}
	.st3{display:inline;}
	.st4{display:inline;fill-rule:evenodd;clip-rule:evenodd;}
</style>
<g id="Page-1">
	<g transform="translate(-601.000000, -2734.000000)">
		<g id="Footer" transform="translate(505.000000, 2734.000000)">
			<g id="TML_LOGO_2016_VECTOR_FULL-WHITE" transform="translate(96.000000, 0.000000)">
				<path id="Fill-1" class="st0" d="M250.8,153.8c-6.2,0-11.1-4.9-11.1-10.9c0-6,4.9-10.9,11.1-10.9s11.1,4.9,11.1,10.9
					C261.9,148.9,257,153.8,250.8,153.8z M275,142.7c0,0-8.1-12.8-24.2-12.8l0,0l0,0c-16.1,0-24.2,12.8-24.2,12.8
					s11.3,12.8,24.2,12.8l0,0l0,0C263.8,155.5,275,142.7,275,142.7L275,142.7z"/>
				<path id="Fill-2" class="st0" d="M248.4,136.5c-2.1,0-3.8,1.7-3.8,3.9c0,2.3,1.7,3.9,3.8,3.9c2.1,0,3.8-1.7,3.8-3.9
					C252.1,138.2,250.4,136.5,248.4,136.5"/>
				<path id="Fill-3" class="st0" d="M174.2,183.9c1.7,2.6,3.8,5.1,5.8,7.3c0,0.4,0,0.8,0,1.1c0,39,31.7,70.8,70.8,70.8
					s70.8-31.7,70.8-70.8c0-0.4,0-0.8,0-1.1c2.3-2.3,4.1-4.7,5.8-7.3c0.6,3.9,0.8,7.9,0.8,12c0,59.9-77.5,83.7-77.5,83.7
					s-77.3-22.2-77.3-83.7C173.3,191.9,173.7,187.8,174.2,183.9z M233,163c12.6,8.1,15.8,19.3,15.8,39.8c0,46.6-18.2,52.4-18.2,52.4
					s-31.2-9.4-31.2-30.8c0-12.6,18-16.3,18-16.3s-82-23.1-25.3-82C193,139.9,219.3,154.2,233,163z M297.2,138.6
					c-12.4-10.7-28.5-17.3-46.4-17.3c-17.6,0-33.8,6.6-46.2,17.3c-1.7-1.7-3.4-3.2-4.7-4.9c4.5-5.6,6.2-12.2,6-15.6
					c3.8,3,11.3,3.4,19.5,0.6c0.4-0.2,0.8-0.2,1.3-0.4c8.4-3,17.6-9.2,24-18.4c6.4,9.2,15.2,15.2,23.7,18.4c0.8,0.2,1.5,0.6,2.3,0.8
					c7.9,2.4,15.2,2.1,18.8-0.9c0,3.4,1.5,9.9,6.2,15.8C300.4,135.4,298.9,137.1,297.2,138.6z M250.8,176.3
					c-2.8-8.4-6.2-13.1-16.3-19.9c-12.6-8.3-14.3-13.9-14.3-13.9s8.1-17.1,30.4-17.1l0,0l0,0c22.5,0,30.4,17.1,30.4,17.1
					s-1.7,5.6-14.3,13.9C257,163.2,253.6,167.9,250.8,176.3z M302.2,224.4c0,21.6-31.2,30.8-31.2,30.8s-18.2-5.8-18.2-52.4
					c0-20.5,3.2-31.7,15.8-39.8c13.7-8.8,40-23.3,40.7-37.2c56.9,59.1-25.2,82.2-25.2,82.2S302.2,211.8,302.2,224.4z M332.1,173.3
					c4.1-15.2-2.6-32.1-19.9-50.1c-0.8-0.8-1.7-1.1-2.6-1.1c-0.4,0-0.9,0-1.3,0.2c-1.3,0.6-2.3,1.9-2.4,3.2
					c-0.2,1.7-0.8,3.4-1.7,5.1l0,0l0,0c-3.4-4.5-4.9-9.8-4.9-12.6c0-1.5-0.8-2.8-2.1-3.4c-0.6-0.2-1.1-0.4-1.7-0.4
					c-0.9,0-1.7,0.4-2.4,0.8c-1.3,0.9-3.8,1.7-6.6,1.7c-2.6,0-5.6-0.6-8.6-1.3c-0.8-0.2-1.5-0.6-2.3-0.8
					c-5.1-1.9-14.6-6.6-21.8-16.9c-0.8-0.9-1.9-1.7-3-1.7c-1.3,0-2.4,0.6-3,1.7c-7.3,10.5-17.1,15.2-22.2,17.1
					c-0.4,0.2-0.9,0.2-1.1,0.4c-3.2,1.1-6.6,1.7-9.6,1.7c-3,0-5.3-0.6-6.6-1.7c-0.6-0.6-1.5-0.8-2.4-0.8c-0.6,0-1.1,0.2-1.7,0.4
					c-1.3,0.6-2.1,2.1-2.1,3.4c0,2.8-1.3,8.1-4.7,12.6l0,0l0,0c-0.9-1.9-1.5-3.6-1.7-5.1c0-1.5-1.1-2.8-2.4-3.2
					c-0.4-0.2-0.8-0.2-1.3-0.2c-0.9,0-2.1,0.4-2.6,1.1c-17.3,18-24,34.7-19.9,49.9c0.6,2.4,1.7,4.9,2.8,7.1l0,0l0,0
					c-1.1,0.6-1.9,1.7-2.1,2.8c-0.6,4.1-0.8,8.3-0.8,12.6c0,26.5,13.9,49.9,40.4,68.1c19.7,13.5,39,19.1,39.8,19.3
					c0.4,0.2,0.8,0.2,0.9,0.2c0.4,0,0.8,0,1.1-0.2c0.8-0.2,20.1-6.2,39.8-19.9c26.5-18.4,40.4-41.7,40.4-67.4
					c0-4.1-0.4-8.3-0.8-12.4c-0.2-1.1-0.9-2.3-2.1-2.8l0,0l0,0C330.4,178.2,331.3,175.8,332.1,173.3L332.1,173.3z"/>
				<path id="Fill-4" class="st0" d="M78.3,332c-6.2,0-11.1-5.3-11.1-11.6s4.9-11.6,11.1-11.6s11.1,5.3,11.1,11.6
					C89.4,326.9,84.5,332,78.3,332z M78.3,305.7c-8.1,0-14.5,6.6-14.5,14.5c0,8.1,6.4,14.6,14.5,14.6s14.5-6.6,14.5-14.6
					C92.9,312.3,86.5,305.7,78.3,305.7L78.3,305.7z"/>
				<path id="Fill-5" class="st0" d="M163.5,332c-6.2,0-11.1-5.3-11.1-11.6s4.9-11.6,11.1-11.6s11.1,5.3,11.1,11.6
					C174.6,326.9,169.7,332,163.5,332z M163.5,305.7c-8.1,0-14.5,6.6-14.5,14.5c0,8.1,6.4,14.6,14.5,14.6c8.1,0,14.5-6.6,14.5-14.6
					C178,312.3,171.6,305.7,163.5,305.7L163.5,305.7z"/>
				<path id="Fill-6" class="st0" d="M199.6,320.3h-2.6v-11.3h2.3c4.3,0,6.4,2.6,6.4,5.6C205.6,317.9,202.9,320.3,199.6,320.3z
					 M208.9,314.5c0-4.7-3.4-8.3-9.6-8.3h-4.3l0,0h-0.2H192c0.9,0.9,1.5,3.6,1.5,6.9c0,0.2,0,0.2,0,0.4v13.7c0,2.8,0,5.8-0.2,7.1
					h3.6c-0.2-1.3-0.2-4.3-0.2-7.1v-4.5h2.3c0.4,0,0.9,0,1.3,0c2.4,4.1,5.8,8.8,8.1,11.8h4.5c-3.2-3-6.8-8.6-9.8-12.4
					C206.1,321.3,208.9,318.8,208.9,314.5L208.9,314.5z"/>
				<path id="Fill-7" class="st0" d="M271.5,332c-6.2,0-11.1-5.3-11.1-11.6s4.9-11.6,11.1-11.6c6.2,0,11.1,5.3,11.1,11.6
					C282.5,326.9,277.5,332,271.5,332z M271.5,305.7c-8.1,0-14.5,6.6-14.5,14.5c0,8.1,6.4,14.6,14.5,14.6s14.5-6.6,14.5-14.6
					C285.9,312.3,279.5,305.7,271.5,305.7L271.5,305.7z"/>
				<path id="Fill-8" class="st0" d="M351.2,331.6v-18c0-2.8,0-6.2,0.2-7.3h-4.9c0.9,0.9,1.5,3.6,1.5,7.1l0,0v0.2v6l0,0v7.5
					c0,1.9,0,5.1-0.2,7.3h8.4c2.8,0,5.3,0,6.6,0.2v-3.2c-1.3,0-3.8,0.2-6.6,0.2H351.2"/>
				<path id="Fill-9" class="st0" d="M381.8,322.2l4.3-10.3l4.3,10.3H381.8z M386.7,305.7h-0.9l-9.8,22.5c-0.9,2.3-2.1,4.5-3,6.2
					h3.8c0.4-1.1,0.9-2.6,1.9-4.7l2.1-4.9h10.7l2.1,4.9c0.8,1.9,1.5,3.4,1.9,4.7h4.3c-0.9-1.7-2.1-3.9-3-6.2L386.7,305.7
					L386.7,305.7z"/>
				<path id="Fill-10" class="st0" d="M460.5,331.6h-4.1v-22.7h4.1c6.2,0,10.9,5.1,10.9,11.3C471.4,326.5,466.5,331.6,460.5,331.6z
					 M460.7,306.3h-6.4l0,0l0,0l0,0c-0.2,0-2.8,0-2.8,0c0.9,0.9,1.5,3.4,1.5,6.9v0.2l0,0v0.2v6l0,0v7.5c0,2.8,0,6-0.2,7.3h7.9
					c7.7,0,14.1-6.4,14.1-14.1S468.4,306.3,460.7,306.3L460.7,306.3z"/>
				<path id="Fill-11" class="st0" d="M232.2,320.3h-2.6v-11.3h2.3c4.3,0,6.4,2.6,6.4,5.6C238.2,317.9,235.6,320.3,232.2,320.3z
					 M241.6,314.5c0-4.7-3.4-8.3-9.6-8.3h-4.3l0,0h-0.2h-2.8c0.9,0.9,1.5,3.4,1.5,6.8c0,0.2,0,0.2,0,0.4l0,0v0.2v6l0,0v7.7
					c0,2.8,0,5.8-0.2,7.1h3.6c-0.2-1.3-0.2-4.3-0.2-7.1v-4.5h2.3c0.4,0,0.9,0,1.3,0c2.4,4.1,5.8,8.8,8.1,11.8h4.5
					c-3.2-3-6.8-8.6-9.8-12.4C239,321.3,241.6,318.8,241.6,314.5L241.6,314.5z"/>
				<path id="Fill-12" class="st0" d="M135.4,331.2c-0.2-0.9-0.2-2.1-0.4-3.4l-2.4-22.2h-0.9l-10.9,23.5l-10.5-23.5h-0.9l-3,21.2
					c-0.2,1.5-0.4,3-0.6,4.3c-0.2,1.5-0.6,2.4-1.1,3.2h2.4h1.9c0-1.5,0.2-3.6,0.6-6l1.9-14.6l9,21h0.8l9.2-21l1.3,15
					c0.2,2.8,0.4,4.3,0.4,5.6h4.5C135.9,333.8,135.5,332.9,135.4,331.2L135.4,331.2"/>
				<path id="Fill-13" class="st0" d="M331,306.3c-0.4,0.9-0.8,2.3-2.3,5.4l-7.5,17.5l-4.7-10.7l3-6.4c1.3-3,2.3-4.9,2.8-5.8h-3.6
					c-0.4,1.3-0.9,2.6-2.1,5.3l-1.5,3.6l-1.5-3.6c-1.3-3-1.9-4.1-2.3-5.4h-3.8c0.9,1.7,1.7,2.8,3,5.6l3.2,6.9l-4.5,10.5l-8.1-18.2
					c-0.9-1.9-1.7-3.6-2.1-4.9h-4.5c0.4,0.4,1.1,0.9,1.7,2.1c0.6,1.1,1.1,2.3,1.9,3.8L309,335h0.6l6-13.1l6,13.1h0.4l10.5-22.9
					c0.4-0.8,0.8-1.5,0.9-2.1c0.2-0.6,0.6-1.1,0.8-1.7c0.6-0.9,1.1-1.7,1.7-2.1L331,306.3"/>
				<path id="Fill-14" class="st0" d="M435.7,313.4c0-3.6,0.2-6.2,1.1-7.1h-4.5c0,1.7,0.2,5.1,0.2,7.3v14.1l-15.2-18
					c-1.3-1.5-2.1-2.4-3.4-3.9h-0.8c0,2.3,0.2,5.4,0.2,7.9v14.8c0,2.3,0,4.9-0.2,6h3.6c0-1.1-0.2-3.8-0.2-6v-15.6l15.6,18.4
					c1.3,1.5,2.1,2.3,3,3.6h0.8c-0.2-2.4-0.2-4.3-0.2-6L435.7,313.4C435.7,313.6,435.7,313.4,435.7,313.4"/>
				<path id="Fill-15" class="st0" d="M55,306.1c-0.6,0.2-1.5,0.2-2.6,0.2s-2.4,0-4.1,0H34.9c-1.7,0-3.2,0-4.1,0
					c-1.1,0-1.9-0.2-2.6-0.2c-0.2,1.9-0.6,3.4-1.3,3.9c0.9-0.4,2.1-0.6,3.8-0.6c0.8,0,1.7-0.2,2.8-0.2c1.7,0,5.1,0,6.2,0
					c0,1.5,0.2,3.6,0.2,5.3v12.8c0,2.8,0,6-0.2,7.3h3.6c-0.2-1.3-0.2-4.5-0.2-7.3v-12.8c0-1.7,0-3.8,0-5.3c1.1,0,4.7,0,6.6,0
					c0.9,0,1.9,0.2,2.8,0.2c1.7,0.2,3,0.4,3.8,0.6l0,0C55.6,309.3,55.2,307.9,55,306.1"/>
				<path id="Fill-16" class="st1" d="M56.5,355.1h1.1c0.6,0,1.1,0,1.5,0v0.8c-0.2,0-0.8,0-1.5,0h-1.9c0-0.6,0-1.1,0-1.5v-2.8
					c0-0.6,0-1.3,0-1.5h0.8c0,0.2,0,0.9,0,1.5V355.1"/>
				<g id="Group-20" transform="translate(19.500000, 135.000000)" class="st2">
					<g id="Clip-18" class="st3">
					</g>
					<path id="Fill-17" class="st4" d="M46.2,219.1c0,0.6,0,1.3,0,1.5h-0.8c0-0.2,0-0.9,0-1.5v-2.8c0-0.6,0-1.3,0-1.5h0.8
						c0,0.2,0,0.9,0,1.5V219.1"/>
					<path id="Fill-19" class="st4" d="M55.2,219.5l1.5-3.8c0.2-0.4,0.4-0.8,0.6-1.1H58c-0.2,0.4-0.4,0.9-0.6,1.3l-2.1,5.1h-0.2
						l-2.1-5.1c-0.4-0.4-0.6-0.9-0.8-1.3h0.9c0,0.4,0.2,0.8,0.4,1.1L55.2,219.5"/>
				</g>
				<path id="Fill-21" class="st1" d="M84.3,355.2H85c0.6,0,1.3,0,1.5,0v0.8c-0.2,0-0.9,0-1.5,0h-1.5c0-0.6,0-1.1,0-1.5v-3
					c0-0.6,0-1.3,0-1.5H85c0.6,0,1.3,0,1.5,0v0.8c-0.2,0-0.9,0-1.5,0h-0.8v1.9H85c0.6,0,1.1,0,1.3,0v0.8c-0.2,0-0.8,0-1.3,0h-0.8
					V355.2"/>
				<g id="Group-25" transform="translate(38.250000, 135.000000)" class="st2">
					<g id="Clip-23" class="st3">
					</g>
					<path id="Fill-22" class="st4" d="M65.1,214.6c0.6,0,1.3,0,1.5,0v0.8c-0.2,0-0.9,0-1.5,0h-0.8c0,0.4,0,0.8,0,1.1v2.8
						c0,0.6,0,1.3,0,1.5h-0.8c0-0.2,0-0.9,0-1.5v-2.8c0-0.4,0-0.8,0-1.1H63c-0.6,0-1.3,0-1.5,0v-0.8c0.2,0,0.9,0,1.5,0H65.1"/>
					<path id="Fill-24" class="st4" d="M75.2,220.2c1.3,0,2.4-1.1,2.4-2.4c0-1.3-1.1-2.4-2.4-2.4c-1.3-0.2-2.4,0.9-2.4,2.3
						C72.8,219.1,73.9,220.2,75.2,220.2z M75.2,214.6c1.7,0,3.2,1.5,3.2,3.2s-1.3,3.2-3.2,3.2c-1.9-0.2-3.2-1.5-3.2-3.4
						C72,215.9,73.4,214.6,75.2,214.6L75.2,214.6z"/>
				</g>
				<path id="Fill-26" class="st1" d="M123.7,355.2h0.9c1.3,0,2.4-1.1,2.4-2.4c0-1.3-1.1-2.4-2.4-2.4h-0.9V355.2z M123,355.8
					c0-0.2,0-0.9,0-1.5v-2.8c0-0.6,0-1.3,0-1.5h1.7c1.7,0,3,1.3,3,3c0,1.7-1.3,3-3,3H123V355.8z"/>
				<path id="Fill-27" class="st1" d="M136.1,350.9l-0.9,2.3h1.9L136.1,350.9z M138.2,355.8c0-0.2-0.2-0.6-0.4-0.9l-0.4-1.1h-2.3
					l-0.4,1.1c-0.2,0.6-0.4,0.8-0.4,0.9h-0.8c0.2-0.4,0.4-0.9,0.6-1.3l2.1-4.9h0.2l2.1,4.9c0.2,0.6,0.4,0.9,0.8,1.3H138.2
					L138.2,355.8z"/>
				<g id="Group-32" transform="translate(61.500000, 135.000000)" class="st2">
					<g id="Clip-29" class="st3">
					</g>
					<path id="Fill-28" class="st4" d="M84.4,220.8c0-0.2,0-0.9,0-1.5V218l-1.3-2.3c-0.4-0.4-0.6-0.8-0.9-1.1h0.9
						c0.2,0.4,0.2,0.6,0.6,0.8l1.1,1.9l1.1-1.7c0.4-0.4,0.6-0.6,0.6-0.9h0.9c-0.2,0.4-0.6,0.8-0.8,1.3l-1.5,2.1v1.3
						c0,0.6,0,1.3,0,1.5H84.4"/>
					<path id="Fill-30" class="st4" d="M261.8,214.6c0,0.2,0,0.9,0,1.5v2.1c0,1.1,0.8,1.9,1.7,1.9s1.7-0.8,1.7-1.9v-1.9
						c0-0.6,0-1.1,0-1.5h0.8c0,0.4,0,1.1,0,1.5v2.1c0,1.5-0.9,2.6-2.3,2.6c-1.3,0-2.6-1.1-2.6-2.6v-2.1c0-0.6,0-1.3,0-1.5
						L261.8,214.6"/>
					<path id="Fill-31" class="st4" d="M272.3,220.8c0-0.2,0-0.8,0-1.3v-3.2c0-0.6,0-1.3,0-1.7h0.2c0.2,0.4,0.4,0.6,0.8,0.8l3.4,3.9
						v-3c0-0.6,0-1.1,0-1.5h0.8c0,0.4,0,1.1,0,1.5v3.2c0,0.4,0,0.8,0,1.3h-0.2c-0.2-0.4-0.4-0.4-0.8-0.8l-3.4-3.9v3.4
						c0,0.4,0,1.1,0,1.3H272.3"/>
				</g>
				<path id="Fill-33" class="st1" d="M346.2,354.1c0,0.6,0,1.3,0,1.5h-0.8c0-0.2,0-0.9,0-1.5v-2.8c0-0.6,0-1.3,0-1.5h0.8
					c0,0.2,0,0.9,0,1.5V354.1"/>
				<path id="Fill-34" class="st1" d="M355.7,349.6c0.6,0,1.3,0,1.5,0v0.8c-0.2,0-0.9,0-1.5,0h-0.6c0,0.4,0,0.8,0,1.1v2.8
					c0,0.6,0,1.3,0,1.5h-0.8c0-0.2,0-0.9,0-1.5v-2.8c0-0.4,0-0.8,0-1.1h-0.6c-0.6,0-1.3,0-1.5,0v-0.8c0.2,0,0.9,0,1.5,0H355.7"/>
				<path id="Fill-35" class="st1" d="M364.2,355.2h0.8c0.6,0,1.3,0,1.5,0v0.8c-0.2,0-0.9,0-1.5,0h-1.5c0-0.6,0-1.1,0-1.5v-3
					c0-0.6,0-1.3,0-1.5h1.5c0.6,0,1.3,0,1.5,0v0.8c-0.2,0-0.9,0-1.5,0h-0.8v1.9h0.8c0.6,0,1.1,0,1.3,0v0.8c-0.2,0-0.8,0-1.3,0h-0.8
					V355.2"/>
				<g id="Group-39" transform="translate(187.500000, 135.000000)" class="st2">
					<g id="Clip-37" class="st3">
					</g>
					<path id="Fill-36" class="st4" d="M192.5,220.8c0-0.2,0-0.9,0-1.5v-3c0-0.6,0-1.3,0-1.5h1.5c0.6,0,1.1,0,1.5,0v0.8
						c-0.2,0-0.8,0-1.5,0h-0.8v2.1h0.8c0.6,0,0.9,0,1.1,0v0.8c-0.2,0-0.6,0-1.1,0h-0.8v1.1c0,0.6,0,1.3,0,1.5L192.5,220.8"/>
					<path id="Fill-38" class="st4" d="M204.7,220.2c1.3,0,2.4-1.1,2.4-2.4c0-1.3-1.1-2.4-2.4-2.4c-1.3,0-2.4,0.9-2.4,2.3
						C202.2,219.1,203.2,220.2,204.7,220.2z M204.7,214.6c1.7,0,3,1.3,3,3c0,1.9-1.3,3.2-3,3.2c-1.9,0-3.2-1.3-3.2-3.2
						C201.5,215.9,202.8,214.6,204.7,214.6L204.7,214.6z"/>
				</g>
				<path id="Fill-40" class="st1" d="M402.5,352.6h0.6c0.8,0,1.3-0.6,1.3-1.3c0-0.6-0.4-1.1-1.3-1.1h-0.6V352.6z M402.5,354.3
					c0,0.6,0,1.3,0,1.5h-0.8c0-0.2,0-0.9,0-1.5v-3c0-0.6,0-1.3,0-1.5h1.3c1.3,0,2.1,0.8,2.1,1.7s-0.6,1.5-1.1,1.7
					c0.6,0.8,1.3,2.1,2.1,2.6h-0.9c-0.6-0.6-1.3-1.7-1.7-2.6c-0.2,0-0.2,0-0.4,0h-0.6L402.5,354.3L402.5,354.3z"/>
				<g id="Group-44" transform="translate(204.750000, 135.000000)" class="st2">
					<g id="Clip-42" class="st3">
					</g>
					<path id="Fill-41" class="st4" d="M207.8,220.2h0.8c0.6,0,1.3,0,1.5,0v0.8c-0.2,0-0.9,0-1.5,0H207c0-0.6,0-1.1,0-1.5v-3.2
						c0-0.6,0-1.3,0-1.5h1.5c0.6,0,1.3,0,1.5,0v0.8c-0.2,0-0.9,0-1.5,0h-0.8v1.9h0.8c0.6,0,1.1,0,1.3,0v0.8c-0.2,0-0.8,0-1.3,0h-0.8
						V220.2"/>
					<path id="Fill-43" class="st4" d="M218.9,219.5l1.5-3.8c0.2-0.4,0.4-0.8,0.4-1.1h0.8c-0.2,0.4-0.4,0.9-0.6,1.3l-2.1,5.1h-0.2
						l-2.1-5.1c-0.2-0.4-0.6-0.9-0.8-1.3h0.9c0,0.4,0.2,0.8,0.4,1.1L218.9,219.5"/>
				</g>
				<path id="Fill-45" class="st1" d="M433.1,355.2h0.8c0.6,0,1.3,0,1.5,0v0.8c-0.2,0-0.9,0-1.5,0h-1.5c0-0.6,0-1.1,0-1.5v-3
					c0-0.6,0-1.3,0-1.5h1.5c0.6,0,1.3,0,1.5,0v0.8c-0.2,0-0.9,0-1.5,0h-0.8v1.9h0.8c0.6,0,1.1,0,1.3,0v0.8c-0.2,0-0.8,0-1.3,0h-0.8
					L433.1,355.2"/>
				<path id="Fill-46" class="st1" d="M442.5,352.6h0.6c0.8,0,1.3-0.6,1.3-1.3c0-0.6-0.4-1.1-1.3-1.1h-0.6V352.6z M442.5,354.3
					c0,0.6,0,1.3,0,1.5h-0.8c0-0.2,0-0.9,0-1.5v-3c0-0.6,0-1.3,0-1.5h1.3c1.3,0,2.1,0.8,2.1,1.7s-0.6,1.5-1.1,1.7
					c0.6,0.8,1.3,2.1,2.1,2.6h-0.9c-0.6-0.6-1.3-1.7-1.7-2.6c-0.2,0-0.2,0-0.4,0h-0.6L442.5,354.3L442.5,354.3z"/>
				<g id="Group-51" transform="translate(74.250000, 135.000000)" class="st2">
					<g id="Clip-48" class="st3">
					</g>
					<path id="Fill-47" class="st4" d="M93.5,220.1h1.1c0.6,0,1.1,0,1.5,0v0.8c-0.2,0-0.8,0-1.5,0h-1.9c0-0.6,0-1.1,0-1.5v-3
						c0-0.6,0-1.3,0-1.5h0.8c0,0.2,0,0.9,0,1.5V220.1"/>
					<path id="Fill-49" class="st4" d="M104.8,220.2c1.3,0,2.4-1.1,2.4-2.4c0-1.3-1.1-2.4-2.4-2.4c-1.3-0.2-2.4,0.9-2.4,2.3
						C102.3,219.1,103.4,220.2,104.8,220.2z M104.8,214.6c1.7,0,3.2,1.5,3.2,3.2s-1.3,3.2-3.2,3.2s-3.2-1.5-3.2-3.4
						C101.6,215.9,102.9,214.6,104.8,214.6L104.8,214.6z"/>
					<path id="Fill-50" class="st4" d="M116.4,219.5l1.5-3.8c0.2-0.4,0.4-0.8,0.4-1.1h0.8c-0.2,0.4-0.4,0.9-0.6,1.3l-2.1,5.1h-0.2
						l-2.1-4.9c-0.2-0.6-0.4-0.9-0.6-1.3h0.9c0,0.4,0.2,0.8,0.4,1.1L116.4,219.5"/>
				</g>
				<path id="Fill-52" class="st1" d="M200.1,355.2h0.8c0.6,0,1.3,0,1.5,0v0.8c-0.2,0-0.9,0-1.5,0h-1.5c0-0.6,0-1.1,0-1.5v-3
					c0-0.6,0-1.3,0-1.5h1.5c0.6,0,1.3,0,1.5,0v0.8c-0.2,0-0.9,0-1.5,0h-0.8v1.9h0.8c0.6,0,1.1,0,1.3,0v0.8c-0.2,0-0.8,0-1.3,0h-0.8
					V355.2"/>
				<g id="Group-58" transform="translate(100.500000, 135.000000)" class="st2">
					<g id="Clip-54" class="st3">
					</g>
					<path id="Fill-53" class="st4" d="M118.6,214.6c0.6,0,1.3,0,1.5,0v0.8c-0.2,0-0.9,0-1.5,0H118c0,0.4,0,0.8,0,1.1v2.8
						c0,0.6,0,1.3,0,1.5h-0.8c0-0.2,0-0.9,0-1.5v-2.8c0-0.4,0-0.8,0-1.1h-0.8c-0.6,0-1.3,0-1.5,0v-0.8c0.2,0,0.9,0,1.5,0H118.6"/>
					<path id="Fill-55" class="st4" d="M128.7,220.2c1.3,0,2.4-1.1,2.4-2.6c0-1.3-1.1-2.4-2.4-2.4c-1.3,0-2.4,1.1-2.4,2.4
						C126.3,219.1,127.4,220.2,128.7,220.2z M128.7,214.6c1.7,0,3.2,1.3,3.2,3c0,1.9-1.5,3.2-3.2,3.2s-3.2-1.3-3.2-3.2
						C125.5,215.9,126.8,214.6,128.7,214.6L128.7,214.6z"/>
					<path id="Fill-56" class="st4" d="M137.9,220.8c0-0.4,0.2-0.9,0.2-1.7l0.6-4.5h0.2l2.4,5.1l2.3-5.1h0.2l0.6,4.7
						c0,0.6,0.2,0.9,0.2,1.5h-0.8c0-0.4,0-0.6,0-1.1l-0.4-3.2l-2.1,4.3h-0.2l-1.9-4.5l-0.4,3.2c0,0.6-0.2,0.9-0.2,1.3H137.9"/>
					<path id="Fill-57" class="st4" d="M153.9,220.2c1.3,0,2.4-1.1,2.4-2.6c0-1.3-1.1-2.4-2.4-2.4c-1.3,0-2.4,1.1-2.4,2.4
						C151.4,219.1,152.6,220.2,153.9,220.2z M153.9,214.6c1.7,0,3.2,1.5,3.2,3.2s-1.3,3.2-3.2,3.2c-1.9,0-3.2-1.5-3.2-3.4
						C150.7,215.9,152.2,214.6,153.9,214.6L153.9,214.6z"/>
				</g>
				<path id="Fill-59" class="st1" d="M264.7,352.6h0.6c0.8,0,1.3-0.6,1.3-1.3c0-0.6-0.4-1.1-1.3-1.1h-0.6V352.6z M264.7,354.3
					c0,0.6,0,1.3,0,1.5h-0.8c0-0.2,0-0.9,0-1.5v-3c0-0.6,0-1.3,0-1.5h1.3c1.3,0,2.1,0.8,2.1,1.7s-0.6,1.5-1.1,1.7
					c0.6,0.8,1.3,2.1,2.1,2.6h-1.1c-0.6-0.6-1.3-1.7-1.7-2.6c-0.2,0-0.2,0-0.4,0h-0.6L264.7,354.3L264.7,354.3z"/>
				<g id="Group-64" transform="translate(131.250000, 135.000000)" class="st2">
					<g id="Clip-61" class="st3">
					</g>
					<path id="Fill-60" class="st4" d="M143.7,217.6h0.6c0.8,0,1.3-0.6,1.3-1.3c0-0.6-0.4-1.1-1.3-1.1h-0.6V217.6z M143.7,219.3
						c0,0.6,0,1.3,0,1.5h-0.8c0-0.2,0-0.9,0-1.5v-3c0-0.6,0-1.3,0-1.5h1.3c1.3,0,2.1,0.8,2.1,1.7s-0.6,1.5-1.1,1.7
						c0.6,0.8,1.3,2.1,2.1,2.6h-1.1c-0.6-0.8-1.3-1.7-1.7-2.6c-0.2,0-0.2,0-0.4,0h-0.4V219.3L143.7,219.3z"/>
					<path id="Fill-62" class="st4" d="M155.7,220.2c1.3,0,2.4-1.1,2.4-2.6c0-1.3-1.1-2.4-2.4-2.4c-1.3,0-2.4,1.1-2.4,2.4
						C153.3,219.1,154.4,220.2,155.7,220.2z M155.7,214.6c1.7,0,3.2,1.3,3.2,3c0,1.9-1.5,3.2-3.2,3.2s-3.2-1.3-3.2-3.2
						C152.5,215.9,154,214.6,155.7,214.6L155.7,214.6z"/>
					<path id="Fill-63" class="st4" d="M172.4,214.6c-0.2,0.4-0.4,0.8-0.4,1.1l-1.5,3.8l-1.5-3.4l-0.2-0.4c0-0.2-0.2-0.4-0.2-0.4
						c0,0.2-0.2,0.4-0.2,0.4l-0.2,0.4l-1.3,3.4l-1.5-3.8c-0.2-0.4-0.4-0.8-0.4-1.1h-0.9c0.2,0.4,0.4,0.9,0.6,1.3l2.1,4.9h0.2
						l1.7-3.9l1.7,3.9h0.2l2.1-4.9c0.2-0.6,0.4-0.9,0.6-1.3H172.4"/>
				</g>
			</g>
		</g>
	</g>
</g>
</svg>
